<svg xmlns="http://www.w3.org/2000/svg" viewBox="0 0 146.38 40"><title>logo-color</title><g id="d02323fd-5962-4d12-86a2-10a085edf878" data-name="Layer 2"><g id="14b7718a-1886-4a6e-b40e-b5d9a4e4e1c7" data-name="Layer 1"><path d="M73.12,26.55a8.17,8.17,0,0,1,.6-3.7,2.07,2.07,0,0,1,2-1.08,1.52,1.52,0,0,1,1.43.78,4.84,4.84,0,0,1,.44,2.33v8.44h5.34V23.26a5.81,5.81,0,0,0-1.43-4.19,5.27,5.27,0,0,0-4-1.49,6.68,6.68,0,0,0-2.78.55,4.23,4.23,0,0,0-1.89,1.64h-.31l-.67-1.91h-4V33.32h5.34Z" fill="#fff"/><path d="M90.38,33.59a7.25,7.25,0,0,0,2.89-.49,6.08,6.08,0,0,0,2.2-1.83h.11l1,2h3.7V23.18a5.27,5.27,0,0,0-1.63-4.12,6.63,6.63,0,0,0-4.61-1.47A14.84,14.84,0,0,0,87.24,19l1.54,3.52a11.27,11.27,0,0,1,4.3-1.15A1.68,1.68,0,0,1,95,23.26v.22l-2.58.08a9.4,9.4,0,0,0-5,1.36,4.19,4.19,0,0,0-1.72,3.68,5.11,5.11,0,0,0,1.26,3.69A4.54,4.54,0,0,0,90.38,33.59Zm3.39-7.13L95,26.41v1.2a2,2,0,0,1-.69,1.6,2.41,2.41,0,0,1-1.66.61q-1.52,0-1.52-1.42Q91.13,26.56,93.76,26.47Z" fill="#fff"/><path d="M109.27,26.55a8.56,8.56,0,0,1,.57-3.66,1.92,1.92,0,0,1,1.83-1.12,1.39,1.39,0,0,1,1.32.78,5.27,5.27,0,0,1,.41,2.35v8.41h5.35V26.11a7.17,7.17,0,0,1,.57-3.29,1.91,1.91,0,0,1,1.8-1.05,1.44,1.44,0,0,1,1.36.78,5,5,0,0,1,.43,2.35v8.41h5.34V23.26A6.08,6.08,0,0,0,126.95,19a5.3,5.3,0,0,0-4.05-1.41,6.06,6.06,0,0,0-2.57.54,4.38,4.38,0,0,0-1.82,1.49h-.42q-1.35-2-4.7-2a6.07,6.07,0,0,0-2.65.56,4,4,0,0,0-1.78,1.62h-.31L108,17.85h-4V33.32h5.34Z" fill="#fff"/><path d="M139.36,33.59a18,18,0,0,0,3.19-.25,9.4,9.4,0,0,0,2.59-.89V28.62a12.82,12.82,0,0,1-2.56.91,11.76,11.76,0,0,1-2.59.27,3.71,3.71,0,0,1-2.44-.74,2.65,2.65,0,0,1-.95-2h9.54V24.65a6.93,6.93,0,0,0-1.9-5.25,7.5,7.5,0,0,0-5.4-1.82,7.4,7.4,0,0,0-5.65,2.1,8.43,8.43,0,0,0-2,6,7.73,7.73,0,0,0,2.14,5.85A8.3,8.3,0,0,0,139.36,33.59Zm-1.89-11.79a2.22,2.22,0,0,1,1.58-.59,2.09,2.09,0,0,1,1.63.67,2.66,2.66,0,0,1,.63,1.79h-4.59A2.78,2.78,0,0,1,137.47,21.81Z" fill="#fff"/><polygon points="46.16 33.32 62.82 33.32 46.16 9.27 37.83 21.29 23.08 0 0 33.32 29.5 33.32 46.16 33.32" fill="#0d47a1"/><rect y="37.48" width="146.38" height="2.52" fill="#0d47a1"/></g></g></svg>